<?xml version="1.0" standalone="no"?>
<!DOCTYPE svg PUBLIC "-//W3C//DTD SVG 20010904//EN"
 "http://www.w3.org/TR/2001/REC-SVG-20010904/DTD/svg10.dtd">
<svg version="1.0" xmlns="http://www.w3.org/2000/svg"
 width="512.000000pt" height="512.000000pt" viewBox="0 0 512.000000 512.000000"
 preserveAspectRatio="xMidYMid meet">
<metadata>
Created by potrace 1.11, written by Peter Selinger 2001-2013
</metadata>
<g transform="translate(0.000000,512.000000) scale(0.100000,-0.100000)"
fill="#000000" stroke="none">
<path d="M0 2560 l0 -2560 2560 0 2560 0 0 2560 0 2560 -2560 0 -2560 0 0
-2560z m3885 1075 c27 -9 70 -25 95 -36 25 -11 55 -25 68 -30 62 -25 72 -34
82 -68 11 -40 13 -215 4 -273 -6 -34 -10 -38 -36 -38 -16 0 -56 16 -88 34 -33
19 -103 50 -157 68 -86 29 -111 33 -203 33 -101 0 -107 -1 -169 -35 -54 -30
-66 -42 -82 -80 -28 -69 -25 -147 9 -211 17 -33 39 -59 56 -68 15 -7 36 -20
45 -30 9 -9 32 -23 51 -32 147 -69 218 -102 235 -109 33 -12 67 -30 120 -60
28 -16 64 -36 81 -44 18 -8 36 -21 40 -29 5 -7 28 -26 52 -42 23 -15 42 -33
42 -39 0 -6 18 -30 39 -54 28 -32 46 -68 71 -144 31 -97 33 -107 27 -213 -4
-79 -11 -127 -25 -161 -11 -27 -23 -66 -27 -86 -3 -20 -9 -38 -14 -40 -4 -2
-24 -27 -45 -57 -39 -57 -138 -151 -160 -151 -7 0 -23 -11 -35 -24 -13 -14
-49 -32 -80 -41 -31 -10 -65 -21 -76 -26 -60 -26 -197 -49 -301 -49 -118 0
-193 10 -289 39 -33 10 -80 25 -105 32 -50 15 -129 58 -157 86 -34 34 -44 73
-44 175 0 76 4 108 18 136 24 50 50 51 121 8 31 -20 65 -36 75 -36 9 0 17 -4
17 -8 0 -5 24 -18 53 -29 116 -45 160 -53 299 -53 152 0 191 11 262 72 91 79
100 238 19 335 -22 27 -151 113 -169 113 -7 0 -16 5 -19 10 -3 6 -14 10 -24
10 -10 0 -35 11 -56 25 -20 14 -50 29 -66 32 -16 3 -34 12 -40 19 -6 8 -19 14
-28 14 -10 0 -32 11 -51 25 -19 14 -38 25 -43 25 -37 0 -218 155 -231 198 -4
12 -11 22 -16 22 -16 0 -59 105 -71 175 -15 86 -6 263 17 343 9 31 29 73 44
92 15 19 30 44 34 56 11 34 174 164 206 164 6 0 40 14 74 30 35 17 92 35 127
40 93 13 363 3 424 -15z m-2524 -30 c60 -30 136 -106 146 -145 3 -14 23 -51
43 -82 21 -31 40 -68 44 -83 4 -14 23 -49 42 -77 20 -28 41 -64 46 -81 14 -40
58 -117 67 -117 4 0 13 -20 20 -44 7 -25 16 -46 21 -48 4 -2 31 -48 60 -103
29 -55 72 -136 95 -180 24 -44 72 -139 108 -211 36 -73 70 -135 76 -139 6 -3
11 -16 11 -28 1 -12 17 -51 36 -87 l35 -65 -6 45 c-3 25 -8 351 -12 726 l-6
680 31 35 30 34 135 0 c122 0 138 -2 164 -21 l28 -21 0 -979 c0 -963 0 -979
-20 -1006 -37 -49 -72 -58 -224 -58 -201 0 -225 5 -274 54 -51 50 -83 99 -125
187 -18 37 -39 72 -47 79 -8 7 -15 20 -16 29 0 9 -17 45 -38 81 -21 36 -57
102 -80 148 -23 45 -46 82 -51 82 -4 0 -11 18 -15 40 -4 22 -10 40 -15 40 -10
0 -80 123 -80 140 0 6 -18 37 -40 67 -22 31 -40 64 -40 74 0 9 -20 48 -45 86
-25 37 -45 75 -46 83 0 8 -14 35 -30 60 -31 49 -34 55 -74 150 -16 36 -31 67
-35 70 -3 3 -15 30 -24 60 -10 30 -21 60 -24 67 -4 6 -7 -345 -7 -780 l0 -792
-30 -15 c-38 -19 -225 -26 -284 -10 -30 8 -45 18 -52 37 -6 17 -9 370 -7 992
3 949 3 966 23 989 21 24 61 49 105 63 14 5 93 7 176 5 140 -4 155 -6 205 -31z"/>
</g>
</svg>
