<?xml version="1.0" standalone="no"?>
<!DOCTYPE svg PUBLIC "-//W3C//DTD SVG 20010904//EN"
 "http://www.w3.org/TR/2001/REC-SVG-20010904/DTD/svg10.dtd">
<svg version="1.0" xmlns="http://www.w3.org/2000/svg"
 width="512.000000pt" height="512.000000pt" viewBox="0 0 512.000000 512.000000"
 preserveAspectRatio="xMidYMid meet">
<metadata>
Created by potrace 1.11, written by Peter Selinger 2001-2013
</metadata>
<g transform="translate(0.000000,512.000000) scale(0.100000,-0.100000)"
fill="#000000" stroke="none">
<path d="M0 2560 l0 -2560 2560 0 2560 0 0 2560 0 2560 -2560 0 -2560 0 0
-2560z m4015 1127 c183 -51 264 -91 289 -143 19 -42 23 -254 4 -315 -10 -35
-15 -39 -43 -39 -18 0 -43 8 -56 18 -52 40 -217 110 -310 131 -67 16 -202 13
-255 -5 -60 -20 -137 -76 -153 -111 -17 -37 -25 -121 -17 -176 7 -43 67 -137
88 -137 5 0 20 -10 33 -23 14 -12 44 -32 67 -44 169 -84 231 -113 243 -113 7
0 44 -18 82 -39 38 -21 84 -46 103 -54 59 -25 172 -114 227 -179 59 -69 102
-153 128 -250 28 -107 17 -278 -26 -400 -49 -140 -169 -296 -256 -334 -17 -8
-35 -18 -38 -24 -10 -16 -122 -70 -145 -70 -11 0 -28 -4 -38 -9 -9 -6 -51 -18
-92 -28 -117 -28 -416 -24 -525 6 -44 13 -96 26 -117 31 -41 8 -147 61 -196
97 -50 37 -63 80 -63 211 0 89 4 122 18 150 27 54 52 53 169 -10 126 -68 159
-81 269 -107 97 -22 261 -28 325 -11 123 32 196 88 223 172 21 68 22 145 1
200 -17 46 -95 127 -154 159 -19 11 -42 23 -50 28 -49 27 -209 101 -219 101
-6 0 -44 18 -84 41 -40 22 -86 47 -103 54 -78 32 -201 146 -268 247 -118 177
-113 510 10 695 58 86 85 114 154 161 30 20 61 43 68 50 7 6 20 12 28 12 9 0
41 12 72 26 102 46 209 64 372 60 116 -3 163 -9 235 -29z m-2784 -33 c75 -32
121 -84 182 -204 22 -41 45 -82 53 -91 8 -8 14 -22 14 -31 0 -8 12 -32 26 -53
14 -21 51 -86 81 -144 30 -58 61 -113 69 -122 8 -8 14 -22 14 -31 0 -8 11 -32
25 -52 14 -21 41 -70 61 -109 19 -39 39 -76 43 -82 13 -16 115 -212 220 -425
53 -107 109 -220 124 -250 l28 -55 -6 45 c-3 25 -8 388 -12 807 l-6 762 32 30
c39 37 81 44 229 39 94 -2 115 -6 139 -24 l28 -21 0 -1089 0 -1089 -29 -37
c-42 -55 -73 -61 -294 -56 l-191 4 -54 49 c-30 28 -58 59 -62 70 -4 11 -21 39
-37 62 -16 23 -42 71 -59 105 -16 35 -59 115 -94 178 -35 63 -75 138 -88 165
-13 28 -38 72 -55 99 -18 28 -32 56 -32 63 0 8 -5 19 -10 26 -19 22 -90 146
-90 156 0 6 -20 43 -45 83 -25 40 -45 79 -45 87 0 8 -6 22 -14 30 -11 13 -76
132 -149 276 -47 92 -107 223 -107 236 -1 8 -11 33 -23 56 l-22 42 0 -882 0
-882 -30 -15 c-41 -21 -263 -26 -324 -8 -38 11 -46 19 -53 46 -5 18 -7 513 -6
1100 3 1183 -2 1091 72 1133 62 35 90 39 267 35 155 -4 171 -6 230 -32z"/>
</g>
</svg>
